<svg xmlns="http://www.w3.org/2000/svg" viewBox="0 0 64 64" role="img" aria-labelledby="title"><title id="title">Mycellium Studio</title><rect width="64" height="64" rx="14" fill="#07110d"/><g fill="none" stroke="#b9ed66" stroke-linecap="round" stroke-width="2.4"><path d="M32 28V10M32 36V54M28 30L15 17M36 30L49 17M28 34L15 47M36 34L49 47M27 32H10M37 32H54"/></g><path d="M32 25C37 29 38 33 32 40C26 33 27 29 32 25Z" fill="#b9ed66"/><g fill="#b9ed66"><circle cx="32" cy="8" r="3"/><circle cx="32" cy="56" r="3"/><circle cx="13" cy="15" r="2.8"/><circle cx="51" cy="15" r="2.8"/><circle cx="13" cy="49" r="2.8"/><circle cx="51" cy="49" r="2.8"/><circle cx="8" cy="32" r="2.8"/><circle cx="56" cy="32" r="2.8"/></g></svg>
