<svg xmlns="http://www.w3.org/2000/svg" viewBox="0 0 720 160" role="img" aria-labelledby="title">
  <title id="title">Mycellium Studio</title>
  <g transform="translate(8 20) scale(1.18)">
    <g fill="none" stroke="#b9ed66" stroke-linecap="round" stroke-linejoin="round" stroke-width="2.7"><path d="M50 43V15M50 30C44 27 40 22 40 15M50 31C57 28 60 23 60 17M50 57V85M50 70C43 73 40 78 40 85M50 69C57 72 60 77 60 83"/><path d="M44 48C35 47 31 40 24 35M33 43C27 43 23 40 19 36M28 38C29 32 27 28 23 25M56 48C65 47 69 40 76 35M67 43C73 43 77 40 81 36M72 38C71 32 73 28 77 25"/><path d="M45 54C37 58 33 65 26 69M34 62C28 60 23 62 19 66M29 67C29 73 26 77 22 80M55 54C63 58 67 65 74 69M66 62C72 60 77 62 81 66M71 67C71 73 74 77 78 80"/></g>
    <path d="M50 40C55 44 58 49 56 53C54 57 51 59 50 62C49 59 46 57 44 53C42 49 45 44 50 40Z" fill="#b9ed66"/>
    <g fill="#b9ed66"><circle cx="50" cy="13" r="3.7"/><circle cx="40" cy="13" r="2.6"/><circle cx="60" cy="15" r="2.5"/><circle cx="50" cy="87" r="3.7"/><circle cx="40" cy="87" r="2.6"/><circle cx="60" cy="85" r="2.5"/><circle cx="17" cy="35" r="3.2"/><circle cx="21" cy="23" r="2.5"/><circle cx="83" cy="35" r="3.2"/><circle cx="79" cy="23" r="2.5"/><circle cx="17" cy="67" r="3.2"/><circle cx="20" cy="82" r="2.5"/><circle cx="83" cy="67" r="3.2"/><circle cx="80" cy="82" r="2.5"/></g>
  </g>
  <text x="420" y="88" fill="#f1f0e7" font-family="Georgia, Times New Roman, serif" font-size="72" text-anchor="middle">Mycellium</text>
  <path d="M239 119H318M522 119H601" stroke="#b9ed66" stroke-width="1.5"/>
  <text x="420" y="128" fill="#b9ed66" font-family="Aptos, Segoe UI, sans-serif" font-size="16" letter-spacing="12" text-anchor="middle">STUDIO</text>
</svg>
