<svg xmlns="http://www.w3.org/2000/svg" viewBox="0 0 1200 630" role="img" aria-labelledby="title description">
  <title id="title">Mycellium Studio</title>
  <desc id="description">Turn rough product ideas into grounded architecture and execution plans.</desc>
  <rect width="1200" height="630" fill="#edf1e8"/>
  <path d="M0 500C250 430 355 575 610 505s374-18 590-105v230H0z" fill="#173f31"/>
  <g transform="translate(74 70) scale(1.7)" fill="none" stroke="#173f31" stroke-linecap="round" stroke-linejoin="round">
    <path d="M12 38V15l20 22 20-22v23" stroke-width="5"/>
    <path d="M12 39c0 7-4 10-9 13m29-14v17m20-16c0 7 4 10 9 13M20 47c3-1 7 1 12 8m12-8c-3-1-7 1-12 8" stroke-width="3"/>
  </g>
  <text x="190" y="126" fill="#173f31" font-family="Avenir Next, Segoe UI, sans-serif" font-size="34" font-weight="700">MYCELLIUM STUDIO</text>
  <text x="74" y="285" fill="#17231d" font-family="Avenir Next, Segoe UI, sans-serif" font-size="72" font-weight="700" letter-spacing="-2">From rough idea to</text>
  <text x="74" y="370" fill="#17231d" font-family="Avenir Next, Segoe UI, sans-serif" font-size="72" font-weight="700" letter-spacing="-2">rooted product plan.</text>
  <text x="76" y="440" fill="#4e6257" font-family="Avenir Next, Segoe UI, sans-serif" font-size="28">AI Product Architect for founders and product teams</text>
  <g fill="none" stroke="#b69b55" stroke-width="5" stroke-linecap="round">
    <path d="M760 505c0-90 55-112 55-198m0 0-62-74m62 74 80-107m-80 107 83 56m-83-56-38 99"/>
  </g>
  <g fill="#b69b55">
    <circle cx="753" cy="233" r="9"/><circle cx="895" cy="200" r="9"/><circle cx="898" cy="363" r="9"/><circle cx="777" cy="406" r="9"/>
  </g>
</svg>
