<svg xmlns="http://www.w3.org/2000/svg" viewBox="0 0 1280 640" role="img" aria-labelledby="title description"><title id="title">Mycellium Studio</title><desc id="description">Ideas take root. Products take shape.</desc><defs><radialGradient id="bg" cx="0" cy="0" r="1" gradientTransform="translate(842 210) rotate(139) scale(780 610)" gradientUnits="userSpaceOnUse"><stop stop-color="#1a3824"/><stop offset=".42" stop-color="#091711"/><stop offset="1" stop-color="#040906"/></radialGradient><filter id="glow" x="-100%" y="-100%" width="300%" height="300%"><feGaussianBlur stdDeviation="14"/></filter></defs><rect width="1280" height="640" fill="url(#bg)"/><circle cx="1060" cy="112" r="320" fill="none" stroke="#b9ed66" stroke-opacity=".05"/><circle cx="1060" cy="112" r="230" fill="none" stroke="#b9ed66" stroke-opacity=".07"/><path d="M0 574C194 500 320 590 520 548S850 486 1280 524V640H0Z" fill="#07110d"/><g transform="translate(90 82) scale(1.38)"><circle cx="50" cy="50" r="28" fill="#b9ed66" opacity=".12" filter="url(#glow)"/><g fill="none" stroke="#b9ed66" stroke-linecap="round" stroke-linejoin="round" stroke-width="2.7"><path d="M50 43V15M50 30C44 27 40 22 40 15M50 31C57 28 60 23 60 17M50 57V85M50 70C43 73 40 78 40 85M50 69C57 72 60 77 60 83"/><path d="M44 48C35 47 31 40 24 35M33 43C27 43 23 40 19 36M28 38C29 32 27 28 23 25M56 48C65 47 69 40 76 35M67 43C73 43 77 40 81 36M72 38C71 32 73 28 77 25"/><path d="M45 54C37 58 33 65 26 69M34 62C28 60 23 62 19 66M29 67C29 73 26 77 22 80M55 54C63 58 67 65 74 69M66 62C72 60 77 62 81 66M71 67C71 73 74 77 78 80"/></g><path d="M50 40C55 44 58 49 56 53C54 57 51 59 50 62C49 59 46 57 44 53C42 49 45 44 50 40Z" fill="#b9ed66"/><g fill="#b9ed66"><circle cx="50" cy="13" r="3.7"/><circle cx="40" cy="13" r="2.6"/><circle cx="60" cy="15" r="2.5"/><circle cx="50" cy="87" r="3.7"/><circle cx="40" cy="87" r="2.6"/><circle cx="60" cy="85" r="2.5"/><circle cx="17" cy="35" r="3.2"/><circle cx="21" cy="23" r="2.5"/><circle cx="83" cy="35" r="3.2"/><circle cx="79" cy="23" r="2.5"/><circle cx="17" cy="67" r="3.2"/><circle cx="20" cy="82" r="2.5"/><circle cx="83" cy="67" r="3.2"/><circle cx="80" cy="82" r="2.5"/></g></g><text x="266" y="155" fill="#f1f0e7" font-family="Georgia, Times New Roman, serif" font-size="68">Mycellium</text><text x="270" y="195" fill="#b9ed66" font-family="Aptos, Segoe UI, sans-serif" font-size="17" letter-spacing="13">STUDIO</text><text x="90" y="344" fill="#f1f0e7" font-family="Georgia, Times New Roman, serif" font-size="74">Ideas take root.</text><text x="90" y="426" fill="#f1f0e7" font-family="Georgia, Times New Roman, serif" font-size="74">Products take shape.</text><text x="94" y="494" fill="#b8c8ba" font-family="Aptos, Segoe UI, sans-serif" font-size="25">Living product intelligence</text></svg>
