<svg xmlns="http://www.w3.org/2000/svg" viewBox="0 0 640 190" role="img" aria-labelledby="title desc">
  <title id="title">Living Network — Mycellium Studio lockup</title><desc id="desc">Living Network icon paired with the Mycellium Studio wordmark.</desc>
  <g color="#08110E" fill="currentColor">
    <g transform="translate(24 30) scale(1.3)">
      <g fill="none" stroke="currentColor" stroke-width="5.5" stroke-linecap="round" stroke-linejoin="round"><path d="M50 80V48C50 39 44 35 34 28"/><path d="M50 53C50 43 57 39 68 31"/><path d="M50 62C41 62 35 58 27 51"/><path d="M50 70C60 70 66 65 74 57"/><path d="M50 48V21"/></g>
      <circle cx="50" cy="80" r="5.5"/><circle cx="34" cy="28" r="5"/><circle cx="68" cy="31" r="5"/><circle cx="27" cy="51" r="5"/><circle cx="74" cy="57" r="5"/><circle cx="50" cy="21" r="5.5"/>
    </g>
    <text x="390" y="91" text-anchor="middle" font-family="Iowan Old Style, Baskerville, Georgia, serif" font-size="66" font-weight="500" letter-spacing="-2">Mycellium</text>
    <rect x="217" y="123" width="92" height="2" rx="1"/><text x="390" y="132" text-anchor="middle" font-family="Inter, Avenir Next, Helvetica Neue, Arial, sans-serif" font-size="15" font-weight="600" letter-spacing="9">STUDIO</text><rect x="485" y="123" width="82" height="2" rx="1"/>
  </g>
</svg>
