<svg xmlns="http://www.w3.org/2000/svg" viewBox="0 0 640 190" role="img" aria-label="Asymmetric Growth — Mycellium Studio lockup">
  <g color="#08110E" fill="currentColor"><g transform="translate(24 30) scale(1.3)"><g fill="none" stroke="currentColor" stroke-width="6" stroke-linecap="round" stroke-linejoin="round"><path d="M27 78C39 70 37 57 48 50C59 43 56 28 70 20"/><path d="M44 54C35 51 29 45 23 36"/><path d="M52 46C64 48 72 45 80 39"/><path d="M38 66C51 69 59 73 67 81"/></g><circle cx="27" cy="78" r="6"/><circle cx="70" cy="20" r="5"/><circle cx="23" cy="36" r="5"/><circle cx="80" cy="39" r="5"/><circle cx="67" cy="81" r="5"/><circle cx="48" cy="50" r="7"/></g><text x="390" y="91" text-anchor="middle" font-family="Iowan Old Style, Baskerville, Georgia, serif" font-size="66" font-weight="500" letter-spacing="-2">Mycellium</text><rect x="217" y="123" width="92" height="2" rx="1"/><text x="390" y="132" text-anchor="middle" font-family="Inter, Avenir Next, Helvetica Neue, Arial, sans-serif" font-size="15" font-weight="600" letter-spacing="9">STUDIO</text><rect x="485" y="123" width="82" height="2" rx="1"/></g>
</svg>
